<svg width="1600" height="1200" viewBox="0 0 1600 1200" xmlns="http://www.w3.org/2000/svg">
  <defs>
    <linearGradient id="sky7" x1="0" y1="0" x2="1" y2="0">
      <stop offset="0%" stop-color="#a1c4fd"/>
      <stop offset="100%" stop-color="#c2e9fb"/>
    </linearGradient>
  </defs>
  <rect width="1600" height="1200" fill="url(#sky7)"/>
  <rect y="648" width="1600" height="552" fill="#9bd1cf"/>
  <path d="M0 780C232 728 426 810 642 748C844 690 1044 790 1224 744C1378 706 1494 714 1600 698V1200H0V780Z" fill="#5f8f8b"/>
  <path d="M0 922C194 876 376 956 592 910C836 858 1028 976 1234 920C1392 876 1498 890 1600 874V1200H0V922Z" fill="#2f5d62"/>
  <rect x="256" y="622" width="342" height="30" fill="#7a5c3e"/>
  <rect x="286" y="652" width="18" height="170" fill="#7a5c3e"/>
  <rect x="544" y="652" width="18" height="170" fill="#7a5c3e"/>
</svg>
