<svg width="1600" height="1200" viewBox="0 0 1600 1200" xmlns="http://www.w3.org/2000/svg">
  <defs>
    <linearGradient id="sky3" x1="0" y1="0" x2="1" y2="1">
      <stop offset="0%" stop-color="#0f2027"/>
      <stop offset="100%" stop-color="#2c5364"/>
    </linearGradient>
  </defs>
  <rect width="1600" height="1200" fill="url(#sky3)"/>
  <circle cx="1260" cy="190" r="80" fill="#fef3c7"/>
  <rect y="720" width="1600" height="480" fill="#102f44"/>
  <path d="M0 812C210 764 404 874 620 812C830 752 1008 872 1210 822C1368 784 1482 810 1600 790V1200H0V812Z" fill="#183b56"/>
  <path d="M0 944C190 880 398 1012 596 950C812 882 1010 1032 1218 968C1380 918 1498 952 1600 930V1200H0V944Z" fill="#26516d"/>
  <path d="M274 736l80 0 0 240-80 0zM316 684l120 0-42 56-36 0z" fill="#f2c14e"/>
  <rect x="0" y="1042" width="1600" height="158" fill="#091720"/>
</svg>
