<svg width="1600" height="1200" viewBox="0 0 1600 1200" xmlns="http://www.w3.org/2000/svg">
  <defs>
    <linearGradient id="sky1" x1="0" y1="0" x2="0" y2="1">
      <stop offset="0%" stop-color="#203a57"/>
      <stop offset="100%" stop-color="#f2a65a"/>
    </linearGradient>
  </defs>
  <rect width="1600" height="1200" fill="url(#sky1)"/>
  <circle cx="1240" cy="240" r="110" fill="#ffe5a9" fill-opacity=".9"/>
  <path d="M0 820C210 760 320 700 510 744C706 792 854 676 1048 704C1268 736 1360 624 1600 700V1200H0V820Z" fill="#29435c"/>
  <path d="M0 910C190 850 376 920 560 864C766 802 934 930 1126 872C1320 812 1456 884 1600 848V1200H0V910Z" fill="#436b80"/>
  <path d="M0 1030C186 970 382 1048 562 1008C786 956 960 1092 1166 1022C1348 960 1450 1028 1600 992V1200H0V1030Z" fill="#f0d7a1"/>
</svg>
